<svg width="19" height="37" viewBox="0 0 19 37" fill="none" xmlns="http://www.w3.org/2000/svg">
<g clip-path="url(#clip0_300_166)">
<path d="M16.2857 7.64678V25.9991C16.2857 30.2155 13.2416 33.6458 9.5 33.6458C5.75836 33.6458 2.71429 30.2155 2.71429 25.9991V7.64678C2.71429 5.11723 4.541 3.05871 6.78571 3.05871C9.03043 3.05871 10.8571 5.11723 10.8571 7.64678V21.411C10.8571 22.2537 10.2478 22.9403 9.5 22.9403C8.75221 22.9403 8.14286 22.2537 8.14286 21.411V9.17614H5.42857V21.411C5.42857 23.9451 7.25121 25.9991 9.5 25.9991C11.7488 25.9991 13.5714 23.9451 13.5714 21.411V7.64678C13.5714 3.42423 10.5328 0 6.78571 0C3.03864 0 0 3.42423 0 7.64678V25.9991C0 31.9115 4.25329 36.7045 9.5 36.7045C14.7467 36.7045 19 31.9115 19 25.9991V7.64678H16.2857Z" fill="#660B42"/>
</g>
<defs>
<clipPath id="clip0_300_166">
<rect width="19" height="37" fill="white"/>
</clipPath>
</defs>
</svg>
