<svg width="25" height="26" viewBox="0 0 25 26" fill="none" xmlns="http://www.w3.org/2000/svg">
<path d="M16.4804 12.57L24.162 4.88833C25.2793 3.771 25.2793 2.095 24.162 0.977666C23.743 0.419 23.0447 0 22.3464 0C21.648 0 20.9497 0.279333 20.3911 0.838L12.5698 8.65933L4.88827 0.977666C3.77095 -0.139667 1.95531 -0.139667 0.977653 0.977666C0.418994 1.39667 0 2.095 0 2.933C0 3.771 0.279329 4.32967 0.837989 4.88833L8.51955 12.57L0.837989 20.2517C0.418994 20.8103 0 21.5087 0 22.3467C0 23.045 0.279329 23.7433 0.837989 24.302C1.39665 24.8607 2.09497 25.14 2.7933 25.14C3.49162 25.14 4.18994 24.8607 4.7486 24.302L12.4302 16.6203L20.1117 24.302C21.229 25.4193 23.0447 25.4193 24.0223 24.302C25.1397 23.1847 25.1397 21.369 24.0223 20.3913L16.4804 12.57Z" fill="black"/>
</svg>
