<svg width="30" height="30" viewBox="0 0 30 30" fill="none" xmlns="http://www.w3.org/2000/svg">
<g clip-path="url(#clip0_296_146)">
<path fill-rule="evenodd" clip-rule="evenodd" d="M28.3713 22.4887C28.98 24.6062 29.5638 26.6362 29.9388 27.95C29.98 28.0975 30 28.245 30 28.3875C30 29.04 29.6 29.6437 28.9625 29.8887L28.96 29.8912C28.205 30.1812 27.3525 29.875 26.9613 29.1687C26.0938 27.6025 24.6288 25.0387 23.8738 23.7225L24.4088 23.7425C25.8838 23.7425 27.25 23.2787 28.3713 22.4887ZM23.1025 29.9912H6.91125L6.6225 22.8837C6.6225 22.8837 4.24625 26.8775 3.03875 29.055C2.6475 29.7612 1.795 30.0675 1.04 29.7787L1.0375 29.775C0.4 29.53 0 28.9275 0 28.2737C0 28.1312 0.02 27.9837 0.06125 27.8375C0.855 25.05 2.60875 19.1475 3.525 15.93C3.86625 14.7312 4.965 13.9062 6.2175 13.9062H18.195C17.765 14.8025 17.5238 15.8075 17.5238 16.8675C17.5238 20.3062 20.0575 23.1587 23.3612 23.6637L23.1025 29.9912ZM24.375 11.25C27.48 11.25 30 13.77 30 16.875C30 19.98 27.48 22.5 24.375 22.5C21.27 22.5 18.75 19.98 18.75 16.875C18.75 13.77 21.27 11.25 24.375 11.25ZM25 13.75H23.75V16.25H21.25V17.5H23.75V20H25V17.5H27.5V16.25H25V13.75ZM15.0075 0C18.4788 0 21.2963 2.80375 21.2963 6.25749C21.2963 9.71124 18.4788 12.515 15.0075 12.515C11.5362 12.515 8.71875 9.71124 8.71875 6.25749C8.71875 2.80375 11.5362 0 15.0075 0Z" fill="#660B42"/>
</g>
<defs>
<clipPath id="clip0_296_146">
<rect width="30" height="30" fill="white"/>
</clipPath>
</defs>
</svg>
