<svg width="30" height="30" viewBox="0 0 30 30" fill="none" xmlns="http://www.w3.org/2000/svg">
<g clip-path="url(#clip0_296_150)">
<mask id="mask0_296_150" style="mask-type:luminance" maskUnits="userSpaceOnUse" x="0" y="0" width="30" height="30">
<path d="M30 0H0V30H30V0Z" fill="white"/>
</mask>
<g mask="url(#mask0_296_150)">
<path fill-rule="evenodd" clip-rule="evenodd" d="M19.8162 20.7C17.7125 22.5962 14.9275 23.75 11.875 23.75C5.32125 23.75 0 18.4288 0 11.875C0 5.32125 5.32125 0 11.875 0C18.4288 0 23.75 5.32125 23.75 11.875C23.75 14.9275 22.5962 17.7125 20.7 19.8162L30 29.1162L29.1162 30L19.8162 20.7ZM11.875 1.25C17.7387 1.25 22.5 6.01125 22.5 11.875C22.5 17.7387 17.7387 22.5 11.875 22.5C6.01125 22.5 1.25 17.7387 1.25 11.875C1.25 6.01125 6.01125 1.25 11.875 1.25Z" fill="#660B42"/>
</g>
</g>
<defs>
<clipPath id="clip0_296_150">
<rect width="30" height="30" fill="white"/>
</clipPath>
</defs>
</svg>
