<svg width="38" height="37" viewBox="0 0 38 37" fill="none" xmlns="http://www.w3.org/2000/svg">
<path fill-rule="evenodd" clip-rule="evenodd" d="M30.8119 1.27561C28.8853 -1.16432 24.7977 0.129905 24.7977 3.1798V6.24227C18.5654 6.17104 14.302 8.2397 11.4622 11.1286C8.42636 14.2169 7.17771 18.0779 6.65446 20.7179C6.39286 22.0378 7.28948 22.9955 8.23178 23.3262C9.13198 23.6421 10.3349 23.5068 11.1376 22.6207C13.416 20.1061 17.8424 16.5964 24.7977 16.8255V20.7509C24.7977 23.8008 28.8853 25.095 30.8119 22.655L36.9974 14.8216C38.3338 13.129 38.3338 10.8017 36.9974 9.10907L30.8119 1.27561ZM10.7091 18.5216C13.6916 16.0082 17.9729 13.6496 24.7977 13.6496H26.4687C27.3914 13.6496 28.1394 14.3601 28.1394 15.2365L28.1391 20.7509L34.3243 12.9174C34.7699 12.3532 34.7699 11.5775 34.3243 11.0133L28.1391 3.1798V7.82913C28.1391 8.70551 27.3911 9.41594 26.4684 9.41594H24.7977C17.2803 9.41594 13.9043 13.2945 13.9043 13.2945C12.3501 14.8756 11.3499 16.7547 10.7091 18.5216Z" fill="#0F0F0F" stroke="black" stroke-width="0.000833333"/>
<path d="M9.91305 1.60168H4.95653C2.21912 1.60168 0 3.7445 0 6.38782V31.9139C0 34.5573 2.21912 36.7 4.95653 36.7H31.3913C34.1288 36.7 36.3479 34.5573 36.3479 31.9139V27.1277C36.3479 26.2466 35.6082 25.5324 34.6957 25.5324C33.7832 25.5324 33.0435 26.2466 33.0435 27.1277V31.9139C33.0435 32.795 32.3038 33.5093 31.3913 33.5093H4.95653C4.04406 33.5093 3.30435 32.795 3.30435 31.9139V6.38782C3.30435 5.50671 4.04406 4.79244 4.95653 4.79244H9.91305C10.8255 4.79244 11.5652 4.07816 11.5652 3.19706C11.5652 2.31595 10.8255 1.60168 9.91305 1.60168Z" fill="#0F0F0F" stroke="black" stroke-width="0.000833333"/>
</svg>
