<svg width="46" height="39" viewBox="0 0 46 39" fill="none" xmlns="http://www.w3.org/2000/svg">
<g clip-path="url(#clip0_296_164)">
<path d="M30.3573 36.7829C30.3573 35.6176 29.6013 34.6718 28.6698 34.6718H17.0598C16.1283 34.6718 15.3723 35.6176 15.3723 36.7829C15.3723 37.9483 16.1283 38.894 17.0598 38.894H28.6698C29.6013 38.894 30.3573 37.9483 30.3573 36.7829ZM35.3208 25.5237C35.3208 24.3583 34.5648 23.4126 33.6333 23.4126H12.0423C11.1108 23.4126 10.3548 24.3583 10.3548 25.5237C10.3548 26.689 11.1108 27.6348 12.0423 27.6348H33.6333C34.5648 27.6348 35.3208 26.689 35.3208 25.5237ZM40.8333 14.2644C40.8333 13.0991 40.0773 12.1533 39.1458 12.1533H6.52081C5.58931 12.1533 4.83331 13.0991 4.83331 14.2644C4.83331 15.4297 5.58931 16.3755 6.52081 16.3755H39.1458C40.0773 16.3755 40.8333 15.4297 40.8333 14.2644ZM45.3333 3.00515C45.3333 1.83982 44.5773 0.894043 43.6458 0.894043H2.02081C1.08931 0.894043 0.333313 1.83982 0.333313 3.00515C0.333313 4.17049 1.08931 5.11627 2.02081 5.11627H43.6458C44.5773 5.11627 45.3333 4.17049 45.3333 3.00515Z" fill="#660B42"/>
</g>
<defs>
<clipPath id="clip0_296_164">
<rect width="46" height="39" fill="white"/>
</clipPath>
</defs>
</svg>
